<?xml version="1.0" encoding="utf-8"?>
<!-- Generator: Adobe Illustrator 17.0.2, SVG Export Plug-In . SVG Version: 6.00 Build 0)  -->
<!DOCTYPE svg PUBLIC "-//W3C//DTD SVG 1.1//EN" "http://www.w3.org/Graphics/SVG/1.1/DTD/svg11.dtd">
<svg version="1.1" id="Layer_1" xmlns="http://www.w3.org/2000/svg" xmlns:xlink="http://www.w3.org/1999/xlink" x="0px" y="0px"
	 width="612px" height="792px" viewBox="0 0 612 792" enable-background="new 0 0 612 792" xml:space="preserve">
<g>
	<g>
		<rect x="153.648" y="295.652" fill="#B8CFE9" width="304.703" height="65.933"/>
		<rect x="153.648" y="432.119" fill="#B8CFE9" width="304.703" height="64.229"/>
	</g>
	<g>
		<polygon points="198.729,367.105 198.729,374.465 216.516,374.465 216.516,427.52 225.715,427.52 225.715,374.465 
			243.855,374.465 243.855,367.105 		"/>
		<path d="M278.155,367.258c-16.937,0-30.667,13.73-30.667,30.668c0,16.935,13.73,30.666,30.667,30.666
			c16.935,0,30.666-13.73,30.666-30.666C308.821,380.988,295.091,367.258,278.155,367.258z M278.024,420.772
			c-12.787,0-23.152-10.365-23.152-23.152c0-12.788,10.365-23.154,23.152-23.154c12.788,0,23.154,10.366,23.154,23.154
			C301.179,410.406,290.812,420.772,278.024,420.772z"/>
		<g id="XMLID_2_">
			<g>
				<polygon points="360.079,367.253 372.37,427.513 363.409,427.513 356.61,391.1 343.97,428.019 341.891,428.019 328.44,391.1 
					321.66,427.513 313.426,427.513 324.77,367.253 329.011,367.253 342.7,409.039 355.359,367.253 				"/>
			</g>
			<g>
			</g>
		</g>
		<g>
			<path d="M379.409,423.979l2.88-7.258c1.473,1.08,3.306,1.979,5.502,2.701c2.195,0.725,4.161,1.086,5.896,1.086
				c3.077,0,5.548-0.842,7.415-2.525c1.867-1.682,2.801-3.826,2.801-6.428c0-1.945-0.521-3.754-1.559-5.424
				c-1.038-1.67-3.648-3.49-7.828-5.463l-4.654-2.168c-3.943-1.84-6.697-4.024-8.263-6.547c-1.564-2.524-2.347-5.561-2.347-9.111
				c0-4.312,1.523-7.888,4.576-10.727c3.049-2.84,6.967-4.259,11.752-4.259c6.39,0,10.833,1.039,13.33,3.115l-2.327,6.862
				c-1.051-0.762-2.655-1.499-4.811-2.208c-2.156-0.71-4.155-1.064-5.995-1.064c-2.682,0-4.792,0.762-6.33,2.287
				c-1.539,1.524-2.308,3.484-2.308,5.876c0,1.473,0.276,2.814,0.829,4.023c0.552,1.209,1.321,2.221,2.307,3.036
				c0.986,0.815,3.004,1.96,6.054,3.431l4.733,2.248c3.943,1.868,6.712,4.096,8.303,6.686c1.591,2.59,2.386,5.883,2.386,9.879
				c0,4.34-1.742,8.02-5.226,11.043c-3.485,3.025-8.145,4.537-13.982,4.537C387.416,427.607,383.038,426.398,379.409,423.979z"/>
		</g>
	</g>
</g>
</svg>
